<svg width="39" height="59" viewBox="0 0 39 59" fill="none" xmlns="http://www.w3.org/2000/svg">
    <title>Garanti Scatter Loader</title>
    <style>
        .scatter-leaf {
            opacity: 0;
            transform-box: fill-box;
            transform-origin: center;
            animation: gather-leaf 2.4s cubic-bezier(0.2, 0.82, 0.24, 1) infinite;
        }
        .leaf-1 { --x: -18px; --y: -16px; --r: -38deg; --s: 0.78; animation-delay: 0s; }
        .leaf-2 { --x: 16px; --y: -18px; --r: 34deg; --s: 0.82; animation-delay: 0.04s; }
        .leaf-3 { --x: -10px; --y: -28px; --r: -24deg; --s: 0.78; animation-delay: 0.08s; }
        .leaf-4 { --x: -16px; --y: 18px; --r: 30deg; --s: 0.82; animation-delay: 0.12s; }
        .leaf-5 { --x: 20px; --y: 20px; --r: -28deg; --s: 0.8; animation-delay: 0.16s; }
        .leaf-6 { --x: 20px; --y: -10px; --r: 36deg; --s: 0.78; animation-delay: 0.2s; }
        .leaf-7 { --x: 22px; --y: 14px; --r: -42deg; --s: 0.82; animation-delay: 0.24s; }
        .leaf-8 { --x: -22px; --y: 14px; --r: 42deg; --s: 0.82; animation-delay: 0.28s; }
        @keyframes gather-leaf {
            0%, 8% {
                opacity: 0;
                transform: translate(var(--x), var(--y)) rotate(var(--r)) scale(var(--s));
                filter: brightness(0.82) saturate(0.78);
            }
            24% {
                opacity: 1;
                transform: translate(calc(var(--x) * 0.55), calc(var(--y) * 0.55)) rotate(calc(var(--r) * 0.48)) scale(0.9);
                filter: brightness(1.08) saturate(1.08);
            }
            48%, 68% {
                opacity: 1;
                transform: translate(0, 0) rotate(0deg) scale(1);
                filter: brightness(1.04) saturate(1.08);
            }
            78% {
                opacity: 1;
                transform: translate(0, 0) rotate(0deg) scale(1.025);
                filter: brightness(1.14) saturate(1.16);
            }
            100% {
                opacity: 0;
                transform: translate(calc(var(--x) * -0.5), calc(var(--y) * -0.5)) rotate(calc(var(--r) * -0.35)) scale(0.9);
                filter: brightness(0.9) saturate(0.86);
            }
        }
    </style>
    <defs>
        <linearGradient x1="13.4032201%" y1="22.8109824%" x2="92.8567332%" y2="83.2675984%" id="linearGradient-1">
            <stop stop-color="#002808" offset="0%"></stop>
            <stop stop-color="#1D6C31" offset="66.5852752%"></stop>
            <stop stop-color="#217536" offset="88.7679813%"></stop>
            <stop stop-color="#217536" offset="88.7679813%"></stop>
            <stop stop-color="#217536" offset="88.7679813%"></stop>
            <stop stop-color="#217536" offset="88.8741441%"></stop>
            <stop stop-color="#217536" offset="88.9962312%"></stop>
            <stop stop-color="#237939" offset="100%"></stop>
        </linearGradient>
        <linearGradient x1="76.6819965%" y1="16.3514406%" x2="29.5644627%" y2="100%" id="linearGradient-2">
            <stop stop-color="#0A3D1D" offset="0%"></stop>
            <stop stop-color="#2A823B" offset="100%"></stop>
        </linearGradient>
        <linearGradient x1="39.1633318%" y1="5.74693849%" x2="72.1353287%" y2="92.9506965%" id="linearGradient-3">
            <stop stop-color="#001600" offset="0%"></stop>
            <stop stop-color="#11461A" offset="45.1756534%"></stop>
            <stop stop-color="#11461A" offset="45.1756534%"></stop>
            <stop stop-color="#11461A" offset="45.2780622%"></stop>
            <stop stop-color="#26803A" offset="100%"></stop>
        </linearGradient>
        <linearGradient x1="69.5106501%" y1="6.12607119%" x2="44.6888189%" y2="100%" id="linearGradient-4">
            <stop stop-color="#48B652" offset="0%"></stop>
            <stop stop-color="#1E642A" offset="61.9602435%"></stop>
            <stop stop-color="#043212" offset="100%"></stop>
        </linearGradient>
        <linearGradient x1="38.8466529%" y1="0%" x2="61.1533471%" y2="88.3625281%" id="linearGradient-5">
            <stop stop-color="#48B652" offset="0%"></stop>
            <stop stop-color="#1E6D33" offset="100%"></stop>
        </linearGradient>
        <linearGradient x1="50%" y1="0%" x2="37.3667575%" y2="100%" id="linearGradient-6">
            <stop stop-color="#063B1A" offset="0%"></stop>
            <stop stop-color="#1D692F" offset="62.4996285%"></stop>
            <stop stop-color="#1D692F" offset="62.4996285%"></stop>
            <stop stop-color="#1E6930" offset="63.5421571%"></stop>
            <stop stop-color="#2B843C" offset="100%"></stop>
        </linearGradient>
        <linearGradient x1="27.4723483%" y1="0%" x2="72.5276517%" y2="88.3625281%" id="linearGradient-7">
            <stop stop-color="#48B652" offset="0%"></stop>
            <stop stop-color="#1E6D33" offset="100%"></stop>
        </linearGradient>
        <linearGradient x1="90.1960844%" y1="12.1780203%" x2="12.907785%" y2="67.5187602%" id="linearGradient-8">
            <stop stop-color="#359943" offset="0%"></stop>
            <stop stop-color="#023110" offset="100%"></stop>
        </linearGradient>
    </defs>
    <g id="LOGO">
        <g class="scatter-leaf leaf-1">
            <g id="Group-20" transform="translate(0.000000, 7.431507)" fill="url(#linearGradient-1)">
                        <path d="M0,8.10975249 C0,9.95633717 0.718998288,11.9441205 2.08546661,13.719189 L2.08546661,13.719189 C3.59684932,15.636373 5.68324486,17.1272105 8.20066781,18.2632176 L8.20066781,18.2632176 C11.438018,19.6119396 14.0994264,20.0382861 16.1858219,20.0382861 L16.1858219,20.0382861 C19.1352012,20.0382861 20.8620976,19.18651 21.5095676,18.8316796 L21.5095676,18.8316796 C16.6177783,7.04434465 7.26522688,1.64762298 5.82723031,0.867363014 L5.82723031,0.867363014 C2.1579238,2.3582005 0.0715282534,4.9153627 0,8.10975249" id="Fill-18"></path>
                    </g>
        </g>
        <g class="scatter-leaf leaf-2">
            <g id="Group-23" transform="translate(26.541096, 11.678082)" fill="url(#linearGradient-2)">
                        <path d="M7.68327977,5.70571112 C6.36096154,8.38948429 4.06487092,12.30695 0.238951528,15.6436342 L0.238951528,15.6436342 C0.656667545,15.7157635 1.07348525,15.7888296 1.63043994,15.7888296 L1.63043994,15.7888296 C3.64805321,15.7888296 6.56937039,14.8464645 9.28317703,10.5655419 L9.28317703,10.5655419 C10.8830743,8.09909347 11.4391307,5.77784045 11.022313,3.74697824 L11.022313,3.74697824 C10.7429373,2.29596092 9.97847208,1.35265915 9.42151739,0.844943594 L9.42151739,0.844943594 C9.14393836,1.78730862 8.58698367,3.60178284 7.68327977,5.70571112" id="Fill-21"></path>
                    </g>
        </g>
        <g class="scatter-leaf leaf-3">
            <g id="Group-26" transform="translate(6.369863, 0.000000)" fill="url(#linearGradient-3)">
                        <path d="M3.91817352,1.13542808 C2.09120244,2.29903056 1.14091324,4.84411749 0.848371385,5.86215227 L0.848371385,5.86215227 C7.13235921,9.71640938 11.1524505,14.8084615 13.3455708,18.4448367 L13.3455708,18.4448367 C14.8073364,20.8443559 15.7566819,22.8813646 16.194551,24.1172813 L16.194551,24.1172813 C16.6343075,22.2990938 16.5597565,20.6264739 16.5597565,20.6264739 L16.5597565,20.6264739 C16.4144292,9.6440951 12.8331507,2.00789515 7.20596651,0.626410695 L7.20596651,0.626410695 C7.01817352,0.58790569 6.82943683,0.551278978 6.64070015,0.523104584 L6.64070015,0.523104584 C6.48593607,0.505260801 6.33211568,0.496808483 6.17923896,0.496808483 L6.17923896,0.496808483 C5.38937595,0.496808483 4.63537291,0.726899368 3.91817352,1.13542808" id="Fill-24"></path>
                    </g>
        </g>
        <g class="scatter-leaf leaf-4">
            <g id="Group-29" transform="translate(7.431507, 31.849315)" fill="url(#linearGradient-4)">
                        <path d="M10.1408219,9.83506849 C9.04331811,11.3529159 7.96374429,12.6714775 6.98042618,13.7925734 L6.98042618,13.7925734 C6.6605175,14.1620254 6.34721461,14.5105479 6.04334855,14.8381409 L6.04334855,14.8381409 C3.33969559,17.6572603 1.14751903,19.3489139 0.343500761,19.8412133 L0.343500761,19.8412133 C0.70870624,21.0396575 2.31579909,25.4794521 5.97068493,25.4794521 L5.97068493,25.4794521 C10.2087671,25.4794521 12.7670928,19.7711448 12.7670928,19.7711448 L12.7670928,19.7711448 L12.7670928,19.7010763 C12.9001522,19.4435519 14.7346728,15.5679452 15.6434399,10.5739726 L15.6434399,10.5739726 C15.6859056,10.3300978 15.7255403,10.0844031 15.7632877,9.83506849 L15.7632877,9.83506849 C15.8161339,9.52385519 15.8642618,9.20809198 15.9067275,8.88959883 L15.9067275,8.88959883 C16.0728158,7.61016634 16.1643531,6.27977495 16.1445358,4.93664384 L16.1445358,4.93664384 C16.1181126,3.43335616 15.9510807,1.90731898 15.5990868,0.410401174 L15.5990868,0.410401174 C15.5821005,0.333052838 15.5641705,0.257524462 15.5434094,0.180176125 L15.5434094,0.180176125 C13.9759513,4.00209393 12.0338508,7.21523483 10.1408219,9.83506849" id="Fill-27"></path>
                    </g>
        </g>
        <g class="scatter-leaf leaf-5">
            <g id="Group-32" transform="translate(25.479452, 29.726027)" fill="url(#linearGradient-5)">
                        <path d="M0.543667808,4.42941936 L0.543667808,5.2105962 C0.543667808,6.60882939 0.526469178,9.17516034 0.852287671,11.743325 L0.852287671,11.743325 C1.18861644,14.3940084 1.88993836,17.0474424 3.35564384,18.4172525 L3.35564384,18.4172525 C4.09518493,19.12783 4.90925342,19.4826603 5.87046575,19.4826603 L5.87046575,19.4826603 L5.94499315,19.4826603 L5.95454795,19.4826603 L6.16761986,19.4826603 C6.64058219,19.4826603 7.82346575,19.3387111 8.6814863,18.0578378 L8.6814863,18.0578378 C9.02450342,17.5361364 9.31688014,16.8273926 9.49746575,15.861924 L9.49746575,15.861924 C9.34936644,15.3640613 8.90506849,13.7311083 8.091,11.743325 L8.091,11.743325 C7.86932877,11.1400218 7.61708219,10.5000436 7.33426027,9.84264477 L7.33426027,9.84264477 C5.89435274,6.57490504 3.74070205,2.78179639 0.839866438,0.524452055 L0.839866438,0.524452055 C0.691767123,1.30562889 0.543667808,2.72586706 0.543667808,4.42941936" id="Fill-30"></path>
                    </g>
        </g>
        <g class="scatter-leaf leaf-6">
            <g id="Group-35" transform="translate(25.479452, 6.369863)" fill="url(#linearGradient-6)">
                        <path d="M6.22991905,0.00916874222 C5.33234745,0.00916874222 4.58533624,0.293399751 3.9126401,0.861861768 L3.9126401,0.861861768 C0.69875467,3.55930573 0.325249066,11.2280417 0.175653798,14.1391174 L0.175653798,14.1391174 L0.100373599,14.7066625 C0.0260585305,16.4826479 0.175653798,18.6125467 0.325249066,19.6770377 L0.325249066,19.6770377 C7.2761208,14.2097167 9.66771482,6.11555106 9.96690535,5.05014321 L9.96690535,5.05014321 C9.59339975,0.435515255 6.60342466,0.00916874222 6.52814446,0.00916874222 L6.52814446,0.00916874222 L6.22991905,0.00916874222 Z" id="Fill-33"></path>
                    </g>
        </g>
        <g class="scatter-leaf leaf-7">
            <g id="Group-38" transform="translate(27.602740, 28.664384)" fill="url(#linearGradient-7)">
                        <path d="M0.104394977,0.602326753 C1.06518265,1.49785455 2.52317352,3.07720588 4.01566781,5.52210919 L4.01566781,5.52210919 L4.02716895,5.54084408 L4.02805365,5.54178082 C5.19851598,7.44992949 6.39551941,9.88359186 7.40054224,12.9345689 L7.40054224,12.9345689 C7.68010845,13.7804492 7.94375,14.675977 8.18881279,15.6192788 L8.18881279,15.6192788 C8.50642123,15.1387288 8.97442922,14.4361704 9.37254566,13.5743654 L9.37254566,13.5743654 C9.46278539,13.3701551 9.5494863,13.1565774 9.62734018,12.9345689 L9.62734018,12.9345689 C9.68484589,12.6947623 9.78835616,12.5036664 9.86090183,12.2816579 L9.86090183,12.2816579 L9.90159817,12.1364625 C10.6553653,9.30749396 9.90159817,6.7689162 7.6402968,4.3745971 L7.6402968,4.3745971 C4.62611301,1.18310838 1.95342466,0.602326753 0.309646119,0.602326753 L0.309646119,0.602326753 L0.104394977,0.602326753 Z" id="Fill-36"></path>
                    </g>
        </g>
        <g class="scatter-leaf leaf-8">
            <g id="Group-41" transform="translate(0.000000, 29.726027)" fill="url(#linearGradient-8)">
                        <path d="M0.503484589,11.743325 C0.431027397,12.0981554 0.431027397,12.5245019 0.431027397,12.9508484 C0.647470034,15.7188917 2.73386558,18.4172525 6.18672945,20.1217217 C7.01905822,19.5743478 10.8843707,17.0006818 15.0292937,11.743325 C16.123583,10.3560943 17.2355223,8.78365504 18.3177354,7.01133717 L18.5555437,6.61616438 C19.6005993,4.86035025 20.615,2.91566002 21.5550856,0.774758717 L21.7250813,0.383253425 C21.172363,0.23013543 20.17747,0.0275062267 18.7041738,0.0275062267 C16.0418365,0.0275062267 11.7984461,0.808683064 6.47470034,4.21670455 C2.94937928,6.48963574 0.863912671,9.11648039 0.503484589,11.743325 Z" id="Fill-39"></path>
                    </g>
        </g>
    </g>
</svg>
