<svg width="38" height="57" viewBox="0 0 38 57" fill="none" xmlns="http://www.w3.org/2000/svg">
<path fill-rule="evenodd" clip-rule="evenodd" d="M0 15.0444C0 16.891 0.718998 18.8788 2.08547 20.6538C3.59685 22.571 5.68324 24.0618 8.20067 25.1979C11.438 26.5466 14.0994 26.9729 16.1858 26.9729C19.1352 26.9729 20.8621 26.1211 21.5096 25.7663C16.6178 13.979 7.26523 8.58226 5.82723 7.802C2.15792 9.29284 0.0715283 11.85 0 15.0444Z" fill="url(#paint0_linear_5687_226)"/>
<path fill-rule="evenodd" clip-rule="evenodd" d="M34.2244 16.8869C32.9021 19.5707 30.606 23.4881 26.78 26.8248C27.1978 26.8969 27.6146 26.97 28.1715 26.97C30.1891 26.97 33.1105 26.0276 35.8243 21.7467C37.4242 19.2803 37.9802 16.959 37.5634 14.9282C37.284 13.4771 36.5196 12.5338 35.9626 12.0261C35.685 12.9685 35.1281 14.783 34.2244 16.8869Z" fill="url(#paint1_linear_5687_226)"/>
<path fill-rule="evenodd" clip-rule="evenodd" d="M10.288 0.63862C8.46106 1.80222 7.51077 4.34731 7.21823 5.36534C13.5022 9.2196 17.5223 14.3117 19.7154 17.948C21.1772 20.3475 22.1265 22.3846 22.5644 23.6205C23.0042 21.8023 22.9296 20.1297 22.9296 20.1297C22.7843 9.14729 19.203 1.51109 13.5758 0.129602C13.388 0.0910972 13.1993 0.0544705 13.0106 0.0262961C12.8558 0.00845236 12.702 0 12.5491 0C11.7592 0 11.0052 0.230091 10.288 0.63862Z" fill="url(#paint2_linear_5687_226)"/>
<path fill-rule="evenodd" clip-rule="evenodd" d="M17.5723 41.1876C16.4748 42.7055 15.3953 44.024 14.4119 45.1451C14.092 45.5146 13.7787 45.8631 13.4749 46.1907C10.7712 49.0098 8.57903 50.7015 7.77501 51.1938C8.14021 52.3922 9.74731 56.832 13.4022 56.832C17.6403 56.832 20.1986 51.1237 20.1986 51.1237V51.0536C20.3317 50.7961 22.1662 46.9205 23.0749 41.9265C23.1174 41.6826 23.157 41.4369 23.1948 41.1876C23.2476 40.8764 23.2958 40.5606 23.3382 40.2421C23.5043 38.9627 23.5959 37.6323 23.576 36.2892C23.5496 34.7859 23.3826 33.2599 23.0306 31.7629C23.0136 31.6856 22.9957 31.6101 22.9749 31.5327C21.4075 35.3546 19.4654 38.5678 17.5723 41.1876Z" fill="url(#paint3_linear_5687_226)"/>
<path fill-rule="evenodd" clip-rule="evenodd" d="M26.0231 33.6586V34.4398C26.0231 35.838 26.0059 38.4044 26.3317 40.9725C26.6681 43.6232 27.3694 46.2767 28.8351 47.6465C29.5746 48.357 30.3887 48.7119 31.3499 48.7119H31.4244H31.434H31.6471C32.12 48.7119 33.3029 48.5679 34.1609 47.287C34.504 46.7653 34.7963 46.0566 34.9769 45.0911C34.8288 44.5933 34.3845 42.9603 33.5705 40.9725C33.3488 40.3692 33.0965 39.7293 32.8137 39.0719C31.3738 35.8041 29.2202 32.011 26.3193 29.7537C26.1712 30.5348 26.0231 31.9551 26.0231 33.6586Z" fill="url(#paint4_linear_5687_226)"/>
<path fill-rule="evenodd" clip-rule="evenodd" d="M31.7094 5.88232C30.8118 5.88232 30.0648 6.16656 29.3921 6.73502C26.1782 9.43246 25.8047 17.1012 25.6551 20.0123L25.5798 20.5798C25.5055 22.3558 25.6551 24.4857 25.8047 25.5502C32.7556 20.0829 35.1472 11.9887 35.4464 10.9233C35.0729 6.30867 32.0829 5.88232 32.0076 5.88232H31.7094Z" fill="url(#paint5_linear_5687_226)"/>
<path fill-rule="evenodd" clip-rule="evenodd" d="M27.7071 28.77C28.6679 29.6655 30.1259 31.2449 31.6184 33.6898L31.6299 33.7085L31.6308 33.7095C32.8013 35.6176 33.9983 38.0513 35.0033 41.1023C35.2829 41.9481 35.5465 42.8437 35.7916 43.787C36.1092 43.3064 36.5772 42.6039 36.9753 41.7421C37.0655 41.5378 37.1522 41.3243 37.2301 41.1023C37.2876 40.8625 37.3911 40.6714 37.4636 40.4494L37.5043 40.3042C38.2581 37.4752 37.5043 34.9366 35.243 32.5423C32.2289 29.3508 29.5562 28.77 27.9124 28.77H27.7071Z" fill="url(#paint6_linear_5687_226)"/>
<path fill-rule="evenodd" clip-rule="evenodd" d="M0.503487 40.9727C0.43103 41.3275 0.43103 41.7538 0.43103 42.1802C0.647473 44.9482 2.73387 47.6466 6.18673 49.3511C7.01906 48.8037 10.8844 46.23 15.0293 40.9727C16.1236 39.5854 17.2355 38.013 18.3177 36.2407L18.5555 35.8455C19.6006 34.0897 20.615 32.145 21.5551 30.0041L21.7251 29.6126C21.1724 29.4595 20.1775 29.2568 18.7042 29.2568C16.0418 29.2568 11.7984 30.038 6.4747 33.446C2.94938 35.719 0.863916 38.3458 0.503487 40.9727Z" fill="url(#paint7_linear_5687_226)"/>
<defs>
<linearGradient id="paint0_linear_5687_226" x1="2.88297" y1="12.1751" x2="18.4915" y2="25.5005" gradientUnits="userSpaceOnUse">
<stop stop-color="#002808"/>
<stop offset="0.665853" stop-color="#1D6C31"/>
<stop offset="0.88768" stop-color="#217536"/>
<stop offset="0.888741" stop-color="#217536"/>
<stop offset="0.889962" stop-color="#217536"/>
<stop offset="1" stop-color="#237939"/>
</linearGradient>
<linearGradient id="paint1_linear_5687_226" x1="35.1511" y1="14.4697" x2="27.1884" y2="24.7963" gradientUnits="userSpaceOnUse">
<stop stop-color="#0A3D1D"/>
<stop offset="1" stop-color="#2A823B"/>
</linearGradient>
<linearGradient id="paint2_linear_5687_226" x1="13.3732" y1="1.35745" x2="23.486" y2="19.1533" gradientUnits="userSpaceOnUse">
<stop stop-color="#001600"/>
<stop offset="0.451757" stop-color="#11461A"/>
<stop offset="0.452781" stop-color="#11461A"/>
<stop offset="1" stop-color="#26803A"/>
</linearGradient>
<linearGradient id="paint3_linear_5687_226" x1="18.7603" y1="33.0826" x2="9.63884" y2="54.6315" gradientUnits="userSpaceOnUse">
<stop stop-color="#48B652"/>
<stop offset="0.619602" stop-color="#1E642A"/>
<stop offset="1" stop-color="#043212"/>
</linearGradient>
<linearGradient id="paint4_linear_5687_226" x1="29.5013" y1="29.7537" x2="36.9094" y2="43.6135" gradientUnits="userSpaceOnUse">
<stop stop-color="#48B652"/>
<stop offset="1" stop-color="#1E6D33"/>
</linearGradient>
<linearGradient id="paint5_linear_5687_226" x1="30.5033" y1="5.88232" x2="25.7796" y2="24.6769" gradientUnits="userSpaceOnUse">
<stop stop-color="#063B1A"/>
<stop offset="0.624996" stop-color="#1D692F"/>
<stop offset="0.635422" stop-color="#1E6930"/>
<stop offset="1" stop-color="#2B843C"/>
</linearGradient>
<linearGradient id="paint6_linear_5687_226" x1="30.4763" y1="28.77" x2="38.5297" y2="39.3717" gradientUnits="userSpaceOnUse">
<stop stop-color="#48B652"/>
<stop offset="1" stop-color="#1E6D33"/>
</linearGradient>
<linearGradient id="paint7_linear_5687_226" x1="19.6374" y1="31.7039" x2="3.83819" y2="43.6921" gradientUnits="userSpaceOnUse">
<stop stop-color="#359943"/>
<stop offset="1" stop-color="#023110"/>
</linearGradient>
</defs>
</svg>
